<?xml version="1.0" encoding="utf-8"?>
<!-- Generator: Adobe Illustrator 19.0.0, SVG Export Plug-In . SVG Version: 6.00 Build 0)  -->
<svg version="1.1" id="Layer_1" xmlns="http://www.w3.org/2000/svg" xmlns:xlink="http://www.w3.org/1999/xlink" x="0px" y="0px"
	 viewBox="0 0 400 300" style="enable-background:new 0 0 400 300;" xml:space="preserve">
<style type="text/css">
	.st0{fill:#1D1D1B;}
</style>
<g>
	<path class="st0" d="M50.4,22.4L19.5,130.9V22.4H50.4L50.4,22.4z M107,130.9L76.4,22.4H107V130.9L107,130.9z M28.3,153L63.4,28.6
		L98.4,153H28.3L28.3,153z M5.3,167.2h115.9V8.2H5.3V167.2L5.3,167.2z"/>
	<path class="st0" d="M323.8,22.4L293,130.9V22.4H323.8L323.8,22.4z M371.9,153h-70.1l35.1-124.4L371.9,153L371.9,153z M380.5,130.9
		L349.9,22.4h30.6L380.5,130.9L380.5,130.9z M278.8,8.2v159h115.9V8.2H278.8L278.8,8.2z"/>
	<path class="st0" d="M156.3,22.4h36.6V153h-36.6V22.4L156.3,22.4z M243.7,153h-36.6V22.4h36.6L243.7,153L243.7,153z M142,167.2H258
		V8.2H142V167.2L142,167.2z"/>
	<path class="st0" d="M60.7,281.3c2.6,0,5-0.9,6.9-2.5c2-1.6,3.1-3.7,3.1-6.4v-0.8h-7.1c-4.9,0-7.3,1.9-7.3,5.5
		C56.3,279.4,57.9,281.3,60.7,281.3L60.7,281.3z M46.8,257.9c1.4-7.2,7.8-11.9,16.4-11.9c12,0,18.1,6,18.1,18v25.7h-8.7l-1.1-5.5
		c-3.3,4.1-7.8,6.1-13.2,6.1c-7.6,0-13.1-4.8-13.1-13c0-8.5,7.4-14.1,18.4-14.1h7.2v-1.9c0-4.2-2.5-6.3-7.5-6.3
		c-3.9,0-6.3,1.6-7.4,5L46.8,257.9L46.8,257.9z"/>
	<path class="st0" d="M194.7,246.6h10.6v43h-10.6V246.6L194.7,246.6z M195.1,229.4c2.6-2.7,7.1-2.7,9.7,0c2.6,2.6,2.6,7.1,0,9.7
		c-2.6,2.6-7.1,2.6-9.7,0C192.5,236.5,192.5,232,195.1,229.4L195.1,229.4z"/>
	<path class="st0" d="M334.2,281.3c2.7,0,4.9-0.9,6.9-2.5c2-1.6,3.1-3.7,3.1-6.4v-0.8h-7.1c-4.9,0-7.3,1.9-7.3,5.5
		C329.8,279.4,331.4,281.3,334.2,281.3L334.2,281.3z M320.3,257.9c1.4-7.2,7.8-11.9,16.4-11.9c12,0,18.1,6,18.1,18v25.7h-8.7
		l-1.1-5.5c-3.3,4.1-7.8,6.1-13.2,6.1c-7.6,0-13.1-4.8-13.1-13c0-8.5,7.4-14.1,18.3-14.1h7.2v-1.9c0-4.2-2.5-6.3-7.5-6.3
		c-3.8,0-6.3,1.6-7.4,5L320.3,257.9L320.3,257.9z"/>
</g>
</svg>
